<svg version="1.2" baseProfile="tiny" viewBox="0 0 225.000 215.212" xmlns:xlink="http://www.w3.org/1999/xlink" xmlns="http://www.w3.org/2000/svg">
<path style="fill:#ffffff;stroke:#F2F2F2;" d="M61.764,22.33h10.713 M61.789,27.968    h10.712 M61.813,33.631h10.712 M61.789,39.269h10.712 M61.789,44.833h10.712 M61.789,50.447h10.712 M61.789,56.06h10.712     M61.764,68.578h10.713 M61.789,74.217h10.712 M61.813,79.88h10.712 M61.789,85.518h10.712 M61.789,91.082h10.712 M61.789,96.696    h10.712 M61.789,102.309h10.712 M61.764,114.726h10.713 M61.789,120.364h10.712 M61.813,126.026h10.712 M61.789,131.664h10.712     M61.789,137.229h10.712 M61.789,142.842h10.712 M61.789,148.456h10.712 M61.764,160.746h10.713 M61.789,166.385h10.712     M61.813,172.048h10.712 M61.789,177.685h10.712 M61.789,183.25h10.712 M61.789,188.863h10.712 M61.789,194.477h10.712     M152.971,22.33h10.713 M152.946,27.968h10.713 M152.922,33.631h10.713 M152.946,39.269h10.713 M152.946,44.833h10.713     M152.946,50.447h10.713 M152.946,56.06h10.713 M152.971,68.578h10.713 M152.946,74.217h10.713 M152.922,79.88h10.713     M152.946,85.518h10.713 M152.946,91.082h10.713 M152.946,96.696h10.713 M152.946,102.309h10.713 M152.971,114.726h10.713     M152.946,120.364h10.713 M152.922,126.026h10.713 M152.946,131.664h10.713 M152.946,137.229h10.713 M152.946,142.842h10.713     M152.946,148.456h10.713 M152.971,160.746h10.713 M152.946,166.385h10.713 M152.922,172.048h10.713 M152.946,177.685h10.713     M152.946,183.25h10.713 M152.946,188.863h10.713 M152.946,194.477h10.713"/>
</svg>