<svg version="1.2" baseProfile="tiny" viewBox="0 0 24.0 24.0" xmlns:xlink="http://www.w3.org/1999/xlink" xmlns="http://www.w3.org/2000/svg">
<path style="fill:#ffffff;" d="M15.296,6.502L11.998,9.8L8.7,6.502c-0.1-0.098-0.255-0.098-0.355,0l-1.52,1.523
		c-0.1,0.098-0.1,0.259,0,0.357l3.294,3.296l-3.296,3.298c-0.1,0.098-0.1,0.259,0,0.357l1.52,1.518c0.1,0.1,0.257,0.1,0.355,0
		l3.298-3.294l3.298,3.294c0.098,0.1,0.257,0.1,0.353,0l1.523-1.518c0.1-0.098,0.1-0.257,0-0.357l-3.296-3.296l3.296-3.296
		c0.1-0.098,0.1-0.259,0-0.357l-1.52-1.523C15.553,6.404,15.394,6.404,15.296,6.502"/>
</svg>