<svg version="1.2" baseProfile="tiny" viewBox="0 0 42.501 42.501" xmlns:xlink="http://www.w3.org/1999/xlink" xmlns="http://www.w3.org/2000/svg">
<path style="fill:#ffffff;" d="M21.2509,0.0C9.533,0.0,0.0,9.533,0.0,21.2501C0.0,32.9672,9.533,42.5001,21.2509,42.5001C32.9689,42.5001,42.501,32.9672,42.501,21.2501C42.501,9.533,32.9689,0.0,21.2509,0.0M21.2509,40.5009C10.6359,40.5009,2.0001,31.8651,2.0001,21.2501C2.0001,10.635,10.6359,2.0001,21.2509,2.0001C31.8651,2.0001,40.5009,10.6359,40.5009,21.2501C40.5009,31.8638,31.8651,40.5009,21.2509,40.5009M24.0679,10.5398L28.811,10.5398L28.811,26.201L25.8729,26.201L25.8729,13.8732L22.7648,26.201L19.72,26.201L16.6221,13.8732L16.6221,26.201L13.684,26.201L13.684,10.5398L18.4161,10.5398L21.2582,21.2229L24.0679,10.5398M28.635,31.6819C28.0179,33.1079,27.2079,33.9732,26.1598,34.3259C25.8062,34.4449,25.4509,34.4981,25.096,34.4981C23.7368,34.4981,22.37,33.7288,21.0401,32.9812C19.743,32.251,18.4029,31.4971,17.5402,31.7882C17.0659,31.948,16.637,32.4669,16.2639,33.3301C16.0458,33.8359,15.4559,34.0701,14.9502,33.8512C14.444,33.6319,14.2102,33.0428,14.4291,32.5358C15.0449,31.1099,15.855,30.245,16.9031,29.8918C18.6078,29.3159,20.3431,30.293,22.0219,31.237C23.319,31.9659,24.657,32.7168,25.5231,32.43C25.997,32.2702,26.4271,31.7508,26.7999,30.888C27.0192,30.3818,27.6031,30.1468,28.1148,30.367C28.621,30.5858,28.8539,31.1749,28.635,31.6819Z"/>
</svg>