<svg version="1.2" baseProfile="tiny" viewBox="0 0 156.749 25.715" xmlns:xlink="http://www.w3.org/1999/xlink" xmlns="http://www.w3.org/2000/svg">
<path style="fill:#ffffff;" d="M42.4774,8.1411L37.7044,12.9141L42.4774,17.6881C42.8693,18.0789,42.8693,18.712,42.4774,19.1019C42.283,19.2971,42.0275,19.395,41.7705,19.395C41.515,19.395,41.2595,19.2971,41.0635,19.1019L35.8767,13.9139L1.0001,13.92C0.4467,13.92,0.0,13.4721,0.0,12.92C0.0,12.3679,0.4467,11.9199,1.0001,11.9199L35.8767,11.914L41.0635,6.726C41.4554,6.3349,42.0871,6.3349,42.4774,6.726C42.8693,7.1169,42.8677,7.75,42.4774,8.1411M113.3076,12.183C113.5161,12.362,113.6477,12.6261,113.6477,12.922C113.6477,13.217,113.5176,13.4811,113.3107,13.6601L107.9013,19.1029C107.7069,19.2981,107.4514,19.3961,107.1944,19.3961C106.9389,19.3961,106.6834,19.2981,106.4874,19.1029C106.0971,18.7131,106.0971,18.08,106.4874,17.6891L110.2604,13.9159L101.3398,13.9211C101.3006,13.9211,101.2693,13.9031,101.2316,13.899L91.2624,13.899L91.2624,24.7149C91.2624,25.2681,90.8141,25.715,90.2623,25.715L66.4976,25.715L66.4976,25.715C65.9443,25.715,65.4976,25.2681,65.4976,24.7149L65.4976,13.92L46.4886,13.9149L50.2616,17.6881C50.6519,18.0789,50.6519,18.712,50.2616,19.1019C50.0656,19.2971,49.8101,19.395,49.5546,19.395C49.2976,19.395,49.0421,19.2971,48.8477,19.1019L43.4383,13.659C43.2314,13.4801,43.1013,13.216,43.1013,12.921C43.1013,12.6261,43.2329,12.3609,43.4414,12.182C43.4398,12.182,43.4398,12.182,43.4398,12.182L48.8477,6.725C49.2396,6.3341,49.8713,6.3341,50.2616,6.725C50.6534,7.1161,50.6534,7.7479,50.2616,8.1391L46.4886,11.913L48.7442,11.913C48.7442,11.9081,48.7442,11.9009,48.7442,11.896L65.4976,11.896L65.4976,1.0001C65.4976,0.4469,65.9443,0.0,66.4976,0.0L90.2623,0.0C90.8141,0.0,91.2624,0.4469,91.2624,1.0001L91.2624,11.8981L107.975,11.8981C107.975,11.904,107.9734,11.9099,107.9734,11.9161L110.2604,11.915L106.4874,8.1411C106.0956,7.75,106.0956,7.1179,106.4874,6.727C106.8777,6.3359,107.5094,6.3359,107.9013,6.727L113.3076,12.183C113.3091,12.183,113.3091,12.183,113.3076,12.183M89.2623,2.0001L67.4977,2.0001L67.4977,2.0001L67.4977,23.7149L89.2623,23.7149L89.2623,2.0001M155.7489,11.9199L120.8723,11.914L115.6855,6.726C115.2936,6.3349,114.6619,6.3349,114.2716,6.726C113.8797,7.1169,113.8797,7.749,114.2716,8.1401L119.0446,12.913L114.2716,17.687C113.8797,18.0779,113.8797,18.711,114.2716,19.1011C114.466,19.296,114.7215,19.394,114.9785,19.394C115.234,19.394,115.4895,19.296,115.6855,19.1011L120.8723,13.9131L155.7489,13.919C156.3023,13.919,156.749,13.4711,156.749,12.919C156.749,12.3671,156.3023,11.9199,155.7489,11.9199Z"/>
</svg>