<svg version="1.2" baseProfile="tiny" viewBox="0 0 56.008 42.501" xmlns:xlink="http://www.w3.org/1999/xlink" xmlns="http://www.w3.org/2000/svg">
<path style="fill:#ffffff;" d="M48.2582,15.501C45.3659,15.501,42.8388,13.9089,41.507,11.5552C40.1751,13.9089,37.648,15.501,34.7558,15.501C31.8641,15.501,29.337,13.9089,28.0051,11.5552C26.6733,13.9089,24.1462,15.501,21.2539,15.501C18.3611,15.501,15.8329,13.908,14.5022,11.553C13.1708,13.908,10.6432,15.501,7.7498,15.501C3.477,15.501,0.0,12.024,0.0,7.7509L0.0,1.0C0.0,0.448,0.4469,0.0,0.9997,0.0C1.5531,0.0,2.0,0.448,2.0,1.0L2.0,7.7509C2.0,10.9211,4.5792,13.5009,7.7498,13.5009C10.921,13.5009,13.5002,10.9211,13.5002,7.7509C13.5002,7.1988,13.9471,6.7509,14.4999,6.7509C15.0533,6.7509,15.5041,7.1988,15.5041,7.7509C15.5041,10.9211,18.0827,13.5009,21.2539,13.5009C24.4251,13.5009,27.0043,10.9211,27.0043,7.7509C27.0043,7.1988,27.4512,6.7509,28.004,6.7509C28.5562,6.7509,29.0037,7.198,29.0037,7.7509C29.0037,7.7509,29.0037,7.7509,29.0037,7.7522L29.006,7.7522C29.006,7.7892,29.006,7.8261,29.0049,7.8618C29.067,10.9818,31.6232,13.5009,34.7558,13.5009C37.9269,13.5009,40.5061,10.9211,40.5061,7.7509C40.5061,7.1988,40.953,6.7509,41.5058,6.7509C42.0581,6.7509,42.5062,7.198,42.5062,7.7509C42.5062,7.7509,42.5062,7.7509,42.5062,7.7522L42.5078,7.7522C42.5078,7.7892,42.5078,7.8261,42.5073,7.8618C42.5689,10.9818,45.1251,13.5009,48.2582,13.5009C51.4288,13.5009,54.008,10.9211,54.008,7.7509L54.008,1.0C54.008,0.448,54.4549,0.0,55.0083,0.0C55.5611,0.0,56.008,0.448,56.008,1.0L56.008,7.7509C56.008,12.024,52.531,15.501,48.2582,15.501Z"/>
</svg>