<svg version="1.2" baseProfile="tiny" viewBox="0 0 56.008 42.501" xmlns:xlink="http://www.w3.org/1999/xlink" xmlns="http://www.w3.org/2000/svg">
<path style="fill:#ffffff;" d="M55.0083,42.501C54.4549,42.501,54.008,42.053,54.008,41.5009L54.008,34.7501C54.008,31.5799,51.4288,29.0001,48.2582,29.0001C45.087,29.0001,42.5078,31.5799,42.5078,34.7501C42.5078,35.3022,42.0609,35.7501,41.5081,35.7501C40.9558,35.7501,40.5078,35.303,40.5078,34.7501C40.5078,34.7501,40.5078,34.7501,40.5078,34.7501L40.5061,34.7501C40.5061,34.7131,40.5061,34.6761,40.5072,34.64C40.4451,31.52,37.8889,29.0001,34.7558,29.0001C31.5851,29.0001,29.006,31.5799,29.006,34.7501C29.006,35.3022,28.559,35.7501,28.0062,35.7501C27.454,35.7501,27.0059,35.303,27.0059,34.7501C27.0059,34.7501,27.0059,34.7501,27.0059,34.7501L27.0043,34.7501C27.0043,34.7131,27.0043,34.6761,27.0048,34.64C26.9432,31.52,24.387,29.0001,21.2539,29.0001C18.0827,29.0001,15.5041,31.5799,15.5041,34.7501C15.5041,35.3022,15.0572,35.7501,14.5038,35.7501C13.951,35.7501,13.5002,35.3022,13.5002,34.7501C13.5002,31.5799,10.921,29.0001,7.7498,29.0001C4.5792,29.0001,2.0,31.5799,2.0,34.7501L2.0,41.5009C2.0,42.053,1.5531,42.501,0.9997,42.501C0.4469,42.501,0.0,42.053,0.0,41.5009L0.0,34.7501C0.0,30.477,3.477,27.0,7.7498,27.0C10.6432,27.0,13.1708,28.593,14.5022,30.948C15.8329,28.593,18.3611,27.0,21.2539,27.0C24.1462,27.0,26.6733,28.5921,28.0051,30.9458C29.337,28.5921,31.8641,27.0,34.7558,27.0C37.648,27.0,40.1751,28.5921,41.507,30.9458C42.8388,28.5921,45.3659,27.0,48.2582,27.0C52.531,27.0,56.008,30.477,56.008,34.7501L56.008,41.5009C56.008,42.053,55.5611,42.501,55.0083,42.501Z"/>
</svg>