<?xml version="1.0" encoding="utf-8"?>
<!-- Generator: Adobe Illustrator 25.0.0, SVG Export Plug-In . SVG Version: 6.00 Build 0)  -->
<svg version="1.2" baseProfile="tiny" id="Layer_1" xmlns="http://www.w3.org/2000/svg" xmlns:xlink="http://www.w3.org/1999/xlink"
	 x="0px" y="0px" viewBox="0 0 32 32" overflow="visible" xml:space="preserve">
<path fill="#6A6A6A" d="M24.765,16.237c0-4.58-3.533-8.345-8.015-8.728V1.556c0-0.414-0.336-0.75-0.75-0.75s-0.75,0.336-0.75,0.75
	v5.953c-4.483,0.383-8.015,4.148-8.015,8.728s3.533,8.345,8.015,8.728v5.479c0,0.414,0.336,0.75,0.75,0.75s0.75-0.336,0.75-0.75
	v-5.479C21.233,24.582,24.765,20.817,24.765,16.237z M8.735,16.237c0-3.753,2.86-6.85,6.515-7.227v14.453
	C11.595,23.087,8.735,19.989,8.735,16.237z M16.75,23.464V9.01c3.655,0.377,6.515,3.474,6.515,7.227S20.405,23.087,16.75,23.464z"/>
</svg>
