<svg version="1.2" baseProfile="tiny" id="EdgeSVG_SoB5X" x="0px" y="0px" width="174.052px" height="72.455px" viewBox="0 0 174.052 72.455" xmlns:xlink="http://www.w3.org/1999/xlink" xmlns="http://www.w3.org/2000/svg">
  <linearGradient id="SVGID_2_" gradientUnits="userSpaceOnUse" x1="87.0239" y1="61.4575" x2="87.0239" y2="10.9976">
    <stop offset="0" style="stop-color:#FFFFFF;stop-opacity:0.3"/>
    <stop offset="0.0994" style="stop-color:#FFFFFF;stop-opacity:0.2769"/>
    <stop offset="0.8627" style="stop-color:#FFFFFF;stop-opacity:0.1"/>
    <stop offset="1" style="stop-color:#000000;stop-opacity:0.1"/>
  </linearGradient>
  <path style="fill:url(#SVGID_2_);" d="M150.479,10.998H23.568c-1.42,0-2.57,1.16-2.57,2.57v45.32c0,1.41,1.15,2.57,2.57,2.57&#xD;&#xA;&#x9;&#x9;h126.91c1.42,0,2.57-1.16,2.57-2.57v-45.32C153.049,12.158,151.898,10.998,150.479,10.998z M152.049,58.888&#xD;&#xA;&#x9;&#x9;c0,0.86-0.7,1.57-1.57,1.57H23.568c-0.86,0-1.57-0.71-1.57-1.57v-45.32c0-0.86,0.71-1.57,1.57-1.57h126.91&#xD;&#xA;&#x9;&#x9;c0.87,0,1.57,0.71,1.57,1.57V58.888z"/>
  <linearGradient id="SVGID_3_" gradientUnits="userSpaceOnUse" x1="87.0234" y1="1.9976" x2="87.0234" y2="70.4575">
    <stop offset="0" style="stop-color:#FFFFFF;stop-opacity:0.3"/>
    <stop offset="0.1153" style="stop-color:#FFFFFF;stop-opacity:0.2769"/>
    <stop offset="1" style="stop-color:#FFFFFF;stop-opacity:0.1"/>
  </linearGradient>
  <path style="fill:url(#SVGID_3_);" d="M170.479,1.998H3.568c-0.86,0-1.57,0.71-1.57,1.57v65.32c0,0.86,0.71,1.57,1.57,1.57h166.91&#xD;&#xA;&#x9;&#x9;c0.87,0,1.57-0.71,1.57-1.57V3.567C172.049,2.708,171.349,1.998,170.479,1.998z M170.549,68.888c0,0.04-0.03,0.07-0.07,0.07H3.568&#xD;&#xA;&#x9;&#x9;c-0.04,0-0.07-0.03-0.07-0.07V3.567c0-0.04,0.03-0.07,0.07-0.07h166.91c0.04,0,0.07,0.03,0.07,0.07V68.888z"/>
  <linearGradient id="SVGID_4_" gradientUnits="userSpaceOnUse" x1="87.0234" y1="3.4976" x2="87.0234" y2="68.9575">
    <stop offset="0" style="stop-color:#FFFFFF;stop-opacity:0.1"/>
    <stop offset="0.0483" style="stop-color:#F6F6F6;stop-opacity:0.1085"/>
    <stop offset="0.128" style="stop-color:#DDDDDD;stop-opacity:0.1225"/>
    <stop offset="0.2295" style="stop-color:#B4B4B4;stop-opacity:0.1404"/>
    <stop offset="0.3487" style="stop-color:#7B7B7B;stop-opacity:0.1613"/>
    <stop offset="0.4812" style="stop-color:#333333;stop-opacity:0.1846"/>
    <stop offset="0.5686" style="stop-color:#000000;stop-opacity:0.2"/>
    <stop offset="1" style="stop-color:#000000;stop-opacity:0.05"/>
  </linearGradient>
  <path style="fill:url(#SVGID_4_);" d="M170.479,3.498H3.568c-0.04,0-0.07,0.03-0.07,0.07v65.32c0,0.04,0.03,0.07,0.07,0.07h166.91&#xD;&#xA;&#x9;&#x9;c0.04,0,0.07-0.03,0.07-0.07V3.567C170.549,3.527,170.519,3.498,170.479,3.498z M153.049,58.888c0,1.41-1.15,2.57-2.57,2.57H23.568&#xD;&#xA;&#x9;&#x9;c-1.42,0-2.57-1.16-2.57-2.57v-45.32c0-1.41,1.15-2.57,2.57-2.57h126.91c1.42,0,2.57,1.16,2.57,2.57V58.888z"/>
  <linearGradient id="SVGID_5_" gradientUnits="userSpaceOnUse" x1="87.0259" y1="14.6626" x2="87.0259" y2="57.792">
    <stop offset="0" style="stop-color:#000000;stop-opacity:0.1"/>
    <stop offset="1" style="stop-color:#000000;stop-opacity:0.05"/>
  </linearGradient>
  <path style="fill:url(#SVGID_5_);" d="M149.39,56.221c0,0.868-0.703,1.571-1.572,1.571H26.234c-0.868,0-1.571-0.704-1.571-1.571&#xD;&#xA;&#x9;&#x9;V16.234c0-0.868,0.704-1.571,1.571-1.571h121.583c0.869,0,1.572,0.704,1.572,1.571V56.221z"/>
  <linearGradient id="SVGID_6_" gradientUnits="userSpaceOnUse" x1="87.0259" y1="12" x2="87.0259" y2="60.4551">
    <stop offset="0" style="stop-color:#FFFFFF;stop-opacity:0.1"/>
    <stop offset="1" style="stop-color:#FFFFFF;stop-opacity:0.05"/>
  </linearGradient>
  <path style="fill:url(#SVGID_6_);" d="M152.052,58.883c0,0.868-0.703,1.572-1.571,1.572H23.571c-0.868,0-1.571-0.704-1.571-1.572&#xD;&#xA;&#x9;&#x9;V13.571C22,12.704,22.704,12,23.571,12H150.48c0.868,0,1.571,0.704,1.571,1.571V58.883z"/>
  <path d="M152.052,58.883c0,0.868-0.703,1.572-1.571,1.572H23.571c-0.868,0-1.571-0.704-1.571-1.572V13.571&#xD;&#xA;&#x9;&#x9;C22,12.704,22.704,12,23.571,12H150.48c0.868,0,1.571,0.704,1.571,1.571V58.883z M150.48,59.512c0.347,0,0.628-0.282,0.628-0.628&#xD;&#xA;&#x9;&#x9;V13.571c0-0.346-0.281-0.628-0.628-0.628H23.571c-0.347,0-0.628,0.282-0.628,0.628v45.313c0,0.346,0.282,0.628,0.628,0.628H150.48z&#xD;&#xA;&#x9;&#x9;"/>
  <linearGradient id="SVGID_7_" gradientUnits="userSpaceOnUse" x1="87.0254" y1="14.7178" x2="87.0254" y2="27.5107">
    <stop offset="0" style="stop-color:#FFFFFF;stop-opacity:0.1"/>
    <stop offset="1" style="stop-color:#FFFFFF;stop-opacity:0.25"/>
  </linearGradient>
  <path style="fill:url(#SVGID_7_);" d="M148.705,14.718H25.347c-0.347,0-0.628,0.282-0.628,0.628v1.408&#xD;&#xA;&#x9;&#x9;c6.8,4.882,5.247,5.31,19.227,5.31s68.58,2.235,79.675,4.676c11.094,2.44,14.867-1.332,20.191-5.437&#xD;&#xA;&#x9;&#x9;c5.326-4.105,5.521-4.549,5.521-4.549v-1.408C149.333,15,149.052,14.718,148.705,14.718z"/>
  <linearGradient id="SVGID_8_" gradientUnits="userSpaceOnUse" x1="87.0254" y1="44.7734" x2="87.0254" y2="57.5664">
    <stop offset="0" style="stop-color:#FFFFFF;stop-opacity:0.03"/>
    <stop offset="1" style="stop-color:#FFFFFF;stop-opacity:0.08"/>
  </linearGradient>
  <path style="fill:url(#SVGID_8_);" d="M148.705,57.566H25.347c-0.347,0-0.628-0.282-0.628-0.628V55.53&#xD;&#xA;&#x9;&#x9;c6.8-4.882,5.247-5.31,19.227-5.31s68.58-2.235,79.675-4.676c11.094-2.441,14.867,1.332,20.191,5.437&#xD;&#xA;&#x9;&#x9;c5.326,4.105,5.521,4.549,5.521,4.549v1.408C149.333,57.284,149.052,57.566,148.705,57.566z"/>
  <linearGradient id="SVGID_9_" gradientUnits="userSpaceOnUse" x1="87.0254" y1="12.9424" x2="87.0254" y2="59.5117">
    <stop offset="0" style="stop-color:#000000;stop-opacity:0.35"/>
    <stop offset="1" style="stop-color:#000000;stop-opacity:0.4"/>
  </linearGradient>
  <path style="fill:url(#SVGID_9_);" d="M150.48,12.942H23.571c-0.347,0-0.628,0.282-0.628,0.628v45.313&#xD;&#xA;&#x9;&#x9;c0,0.346,0.282,0.628,0.628,0.628H150.48c0.347,0,0.628-0.282,0.628-0.628V13.571C151.108,13.225,150.827,12.942,150.48,12.942z&#xD;&#xA;&#x9;&#x9; M150.222,57.996c0,0.346-0.282,0.628-0.629,0.628H24.459c-0.347,0-0.628-0.282-0.628-0.628V14.458&#xD;&#xA;&#x9;&#x9;c0-0.346,0.282-0.628,0.628-0.628h125.134c0.347,0,0.629,0.282,0.629,0.628V57.996z"/>
  <linearGradient id="SVGID_10_" gradientUnits="userSpaceOnUse" x1="86.8335" y1="64.0366" x2="86.8335" y2="68.1143">
    <stop offset="0" style="stop-color:#FFFFFF;stop-opacity:0.03"/>
    <stop offset="1" style="stop-color:#FFFFFF;stop-opacity:0.08"/>
  </linearGradient>
  <path style="fill:url(#SVGID_10_);" d="M168.077,68.114H5.59c-0.794,0-1.441-0.313-1.441-0.915c0-0.603,3.816-1.838,5.925-1.838&#xD;&#xA;&#x9;&#x9;c2.109,0,154.679,0.009,154.679,0.009c1.272,0,2.186-0.427,2.308-1.13s2.458,0.566,2.458,1.544s0,1.623,0,1.623&#xD;&#xA;&#x9;&#x9;C169.519,67.798,168.872,68.114,168.077,68.114z"/>
  <linearGradient id="SVGID_11_" gradientUnits="userSpaceOnUse" x1="86.6431" y1="61.9199" x2="86.6431" y2="64.9897">
    <stop offset="0" style="stop-color:#FFFFFF;stop-opacity:0.15"/>
    <stop offset="1" style="stop-color:#FFFFFF;stop-opacity:0.25"/>
  </linearGradient>
  <path style="fill:url(#SVGID_11_);" d="M153.838,61.928c-0.831-0.092-1.161,0.639-1.873,0.639H22.592&#xD;&#xA;&#x9;&#x9;c-0.553,0-0.677-0.249-1.512-0.4c-3.3-0.6-6.27,3.161,0.763,2.586c9.166-0.75,121.644-0.8,127.463,0.1&#xD;&#xA;&#x9;&#x9;S157.855,61.928,153.838,61.928z"/>
  <linearGradient id="SVGID_12_" gradientUnits="userSpaceOnUse" x1="87.0005" y1="4.144" x2="87.0005" y2="41.4189">
    <stop offset="0" style="stop-color:#FFFFFF;stop-opacity:0.05"/>
    <stop offset="1" style="stop-color:#FFFFFF;stop-opacity:0.15"/>
  </linearGradient>
  <path style="fill:url(#SVGID_12_);" d="M4.519,4.561c0.444-0.296,0.667-0.417,11-0.417s141.917,0.333,146.5,0.167&#xD;&#xA;&#x9;&#x9;s7.833-0.5,7.833,0.833s0.083,33.083,0,34.833s-2.333,1.75-5.416,0.833s-10.384-1.75-10.384-2.583s0-17.667,0-21.083&#xD;&#xA;&#x9;&#x9;s0.616-7.144-2-7.144s-126.7,0-128.45,0S20,11.395,20,13.811s0.519,6.5-0.814,6.25s-7.583-0.75-9.833-4.417&#xD;&#xA;&#x9;&#x9;S2.769,5.728,4.519,4.561z"/>
</svg>