<svg version="1.2" baseProfile="tiny" id="EdgeSVG_MX4yl" x="0px" y="0px" width="87.001px" height="87.001px" viewBox="0 0 87.001 87.001" xmlns:xlink="http://www.w3.org/1999/xlink" xmlns="http://www.w3.org/2000/svg">
  <path fill-rule="evenodd" fill="#BE1E2D" d="M58.121,66.316c-0.478,0-0.93-0.188-1.27-0.527L43.5,52.447L30.153,65.789&#xD;&#xA;&#x9;&#x9;c-0.34,0.34-0.792,0.527-1.27,0.527c-0.481,0-0.93-0.188-1.273-0.521l-6.399-6.398c-0.34-0.34-0.528-0.793-0.528-1.277&#xD;&#xA;&#x9;&#x9;c0-0.482,0.184-0.934,0.524-1.273l13.344-13.344L21.208,30.159c-0.34-0.338-0.528-0.792-0.528-1.275s0.188-0.937,0.532-1.275&#xD;&#xA;&#x9;&#x9;l6.395-6.398c0.348-0.34,0.8-0.526,1.273-0.526c0.481,0,0.93,0.187,1.273,0.526L43.5,34.558L56.848,21.21&#xD;&#xA;&#x9;&#x9;c0.344-0.34,0.793-0.526,1.273-0.526c0.481,0,0.934,0.188,1.273,0.528l6.399,6.396c0.34,0.338,0.527,0.791,0.527,1.273&#xD;&#xA;&#x9;&#x9;s-0.188,0.937-0.531,1.277L52.449,43.501l13.345,13.344c0.34,0.34,0.527,0.791,0.527,1.273c0,0.484-0.188,0.936-0.531,1.275&#xD;&#xA;&#x9;&#x9;l-6.396,6.395C59.055,66.129,58.603,66.316,58.121,66.316z"/>
  <path fill-rule="evenodd" fill="#FFFFFF" d="M57.371,21.734L43.5,35.604l-13.872-13.87c-0.416-0.414-1.078-0.414-1.498,0&#xD;&#xA;&#x9;&#x9;l-6.398,6.398c-0.413,0.411-0.416,1.088,0,1.502L35.6,43.501L21.732,57.369c-0.413,0.412-0.413,1.089,0.003,1.503l6.395,6.396&#xD;&#xA;&#x9;&#x9;c0.42,0.412,1.085,0.412,1.498,0L43.5,51.398l13.871,13.869c0.416,0.412,1.086,0.412,1.498,0l6.398-6.397&#xD;&#xA;&#x9;&#x9;c0.416-0.414,0.416-1.087,0-1.501L51.399,43.501l13.868-13.866c0.416-0.414,0.416-1.089,0-1.502l-6.395-6.396&#xD;&#xA;&#x9;&#x9;C58.457,21.322,57.787,21.32,57.371,21.734z"/>
</svg>